<svg width="14" height="14" viewBox="0 0 14 14" fill="none" xmlns="http://www.w3.org/2000/svg">
<path d="M2.45 3.5C2.17152 3.5 1.90445 3.38938 1.70754 3.19246C1.51062 2.99555 1.4 2.72848 1.4 2.45C1.4 2.17152 1.51062 1.90445 1.70754 1.70754C1.90445 1.51062 2.17152 1.4 2.45 1.4C2.72848 1.4 2.99555 1.51062 3.19246 1.70754C3.38938 1.90445 3.5 2.17152 3.5 2.45C3.5 2.72848 3.38938 2.99555 3.19246 3.19246C2.99555 3.38938 2.72848 3.5 2.45 3.5ZM13.587 6.706L7.287 0.406C7.035 0.154 6.685 0 6.3 0H1.4C0.623 0 0 0.623 0 1.4V6.3C0 6.685 0.154 7.035 0.413 7.287L6.706 13.587C6.965 13.839 7.315 14 7.7 14C8.085 14 8.435 13.839 8.687 13.587L13.587 8.687C13.846 8.435 14 8.085 14 7.7C14 7.308 13.839 6.958 13.587 6.706Z" fill="#E05D00"/>
</svg>
