<svg width="87" height="14" viewBox="0 0 87 14" fill="none" xmlns="http://www.w3.org/2000/svg">
<path d="M8.54823 6.52C9.28023 6.676 9.86823 7.042 10.3122 7.618C10.7562 8.182 10.9782 8.83 10.9782 9.562C10.9782 10.618 10.6062 11.458 9.86223 12.082C9.13023 12.694 8.10423 13 6.78423 13H0.898227V0.364H6.58623C7.87023 0.364 8.87223 0.657999 9.59223 1.246C10.3242 1.834 10.6902 2.632 10.6902 3.64C10.6902 4.384 10.4922 5.002 10.0962 5.494C9.71223 5.986 9.19623 6.328 8.54823 6.52ZM3.97623 5.476H5.99223C6.49623 5.476 6.88023 5.368 7.14423 5.152C7.42023 4.924 7.55823 4.594 7.55823 4.162C7.55823 3.73 7.42023 3.4 7.14423 3.172C6.88023 2.944 6.49623 2.83 5.99223 2.83H3.97623V5.476ZM6.24423 10.516C6.76023 10.516 7.15623 10.402 7.43223 10.174C7.72023 9.934 7.86423 9.592 7.86423 9.148C7.86423 8.704 7.71423 8.356 7.41423 8.104C7.12623 7.852 6.72423 7.726 6.20823 7.726H3.97623V10.516H6.24423ZM15.7875 0.364V7.924C15.7875 8.68 15.9735 9.262 16.3455 9.67C16.7175 10.078 17.2635 10.282 17.9835 10.282C18.7035 10.282 19.2555 10.078 19.6395 9.67C20.0235 9.262 20.2155 8.68 20.2155 7.924V0.364H23.2935V7.906C23.2935 9.034 23.0535 9.988 22.5735 10.768C22.0935 11.548 21.4455 12.136 20.6295 12.532C19.8255 12.928 18.9255 13.126 17.9295 13.126C16.9335 13.126 16.0395 12.934 15.2475 12.55C14.4675 12.154 13.8495 11.566 13.3935 10.786C12.9375 9.994 12.7095 9.034 12.7095 7.906V0.364H15.7875ZM36.2909 0.364L31.9169 8.824V13H28.8389V8.824L24.4649 0.364H27.9569L30.4049 5.656L32.8349 0.364H36.2909ZM52.6495 13H49.5715L44.4235 5.206V13H41.3455V0.364H44.4235L49.5715 8.194V0.364H52.6495V13ZM60.8566 13.126C59.6686 13.126 58.5766 12.85 57.5806 12.298C56.5966 11.746 55.8106 10.978 55.2226 9.994C54.6466 8.998 54.3586 7.882 54.3586 6.646C54.3586 5.41 54.6466 4.3 55.2226 3.316C55.8106 2.332 56.5966 1.564 57.5806 1.012C58.5766 0.46 59.6686 0.184 60.8566 0.184C62.0446 0.184 63.1306 0.46 64.1146 1.012C65.1106 1.564 65.8906 2.332 66.4546 3.316C67.0306 4.3 67.3186 5.41 67.3186 6.646C67.3186 7.882 67.0306 8.998 66.4546 9.994C65.8786 10.978 65.0986 11.746 64.1146 12.298C63.1306 12.85 62.0446 13.126 60.8566 13.126ZM60.8566 10.318C61.8646 10.318 62.6686 9.982 63.2686 9.31C63.8806 8.638 64.1866 7.75 64.1866 6.646C64.1866 5.53 63.8806 4.642 63.2686 3.982C62.6686 3.31 61.8646 2.974 60.8566 2.974C59.8366 2.974 59.0206 3.304 58.4086 3.964C57.8086 4.624 57.5086 5.518 57.5086 6.646C57.5086 7.762 57.8086 8.656 58.4086 9.328C59.0206 9.988 59.8366 10.318 60.8566 10.318ZM86.419 0.364L83.125 13H79.399L77.383 4.684L75.295 13H71.569L68.365 0.364H71.659L73.477 9.562L75.727 0.364H79.111L81.271 9.562L83.107 0.364H86.419Z" fill="white"/>
</svg>
