<svg width="54" height="21" viewBox="0 0 54 21" fill="none" xmlns="http://www.w3.org/2000/svg">
<rect width="54" height="21" rx="2" fill="black"/>
<path d="M14.1719 17V14.2578H9.20312V12.9688L14.4297 5.54688H15.5781V12.9688H17.125V14.2578H15.5781V17H14.1719ZM14.1719 12.9688V7.80469L10.5859 12.9688H14.1719ZM19.3594 17V15.3984H20.9609V17H19.3594ZM30.3203 8.35156L28.9219 8.46094C28.7969 7.90885 28.6198 7.50781 28.3906 7.25781C28.0104 6.85677 27.5417 6.65625 26.9844 6.65625C26.5365 6.65625 26.1432 6.78125 25.8047 7.03125C25.362 7.35417 25.013 7.82552 24.7578 8.44531C24.5026 9.0651 24.3698 9.94792 24.3594 11.0938C24.6979 10.5781 25.112 10.1953 25.6016 9.94531C26.0911 9.69531 26.6042 9.57031 27.1406 9.57031C28.0781 9.57031 28.875 9.91667 29.5312 10.6094C30.1927 11.2969 30.5234 12.1875 30.5234 13.2812C30.5234 14 30.3672 14.6693 30.0547 15.2891C29.7474 15.9036 29.3229 16.375 28.7812 16.7031C28.2396 17.0312 27.625 17.1953 26.9375 17.1953C25.7656 17.1953 24.8099 16.7656 24.0703 15.9062C23.3307 15.0417 22.9609 13.6198 22.9609 11.6406C22.9609 9.42708 23.3698 7.81771 24.1875 6.8125C24.901 5.9375 25.862 5.5 27.0703 5.5C27.9714 5.5 28.7083 5.7526 29.2812 6.25781C29.8594 6.76302 30.2057 7.46094 30.3203 8.35156ZM24.5781 13.2891C24.5781 13.7734 24.6797 14.237 24.8828 14.6797C25.0911 15.1224 25.3802 15.4609 25.75 15.6953C26.1198 15.9245 26.5078 16.0391 26.9141 16.0391C27.5078 16.0391 28.0182 15.7995 28.4453 15.3203C28.8724 14.8411 29.0859 14.1901 29.0859 13.3672C29.0859 12.5755 28.875 11.9531 28.4531 11.5C28.0312 11.0417 27.5 10.8125 26.8594 10.8125C26.224 10.8125 25.6849 11.0417 25.2422 11.5C24.7995 11.9531 24.5781 12.5495 24.5781 13.2891Z" fill="white"/>
<path d="M40.5702 13.6792C40.5268 13.6547 40.4731 13.6547 40.4297 13.6792L38.1898 14.9418C37.8612 15.1269 37.462 14.842 37.5536 14.4876L38.1547 12.1621C38.1675 12.1125 38.1495 12.0604 38.1084 12.028L36.157 10.4853C35.8584 10.2492 36.0118 9.78515 36.3979 9.75658L38.9801 9.56554C39.0313 9.56175 39.0762 9.53108 39.0966 9.48587L40.1048 7.24885C40.2543 6.91705 40.7457 6.91705 40.8952 7.24885L41.9034 9.48587C41.9238 9.53108 41.9687 9.56175 42.0199 9.56554L44.6021 9.75658C44.9882 9.78515 45.1416 10.2492 44.843 10.4853L42.8916 12.028C42.8505 12.0604 42.8326 12.1125 42.8453 12.1621L43.4464 14.4876C43.538 14.842 43.1388 15.1269 42.8102 14.9418L40.5702 13.6792Z" fill="white"/>
</svg>
